HIERARCHY
ROOT Hips
{
	OFFSET 0.000000 0.000000 0.000000
	CHANNELS 6 Xposition Yposition Zposition Xrotation Yrotation Zrotation
	JOINT LeftUpLeg_virtual
	{
		OFFSET 0.000000 0.000000 0.000000
		CHANNELS 3 Xrotation Yrotation Zrotation
		JOINT LeftUpLeg
		{
			OFFSET 15.427100 -6.655098 0.678600
			CHANNELS 3 Xrotation Yrotation Zrotation
			JOINT LeftLeg
			{
				OFFSET 4.081073 -39.591068 13.024000
				CHANNELS 3 Xrotation Yrotation Zrotation
				JOINT LeftFoot
				{
					OFFSET -4.081074 -37.707932 -15.979700
					CHANNELS 3 Xrotation Yrotation Zrotation
					JOINT LeftToeBase
					{
						OFFSET 5.346399 -15.068900 20.645000
						CHANNELS 3 Xrotation Yrotation Zrotation
						JOINT LeftToe_End
						{
							OFFSET 2.754700 0.931300 11.300900
							CHANNELS 3 Xrotation Yrotation Zrotation
							End Site
							{
								OFFSET 0 0 0
							}
						}
					}
				}
			}
		}
	}
	JOINT RightUpLeg_virtual
	{
		OFFSET 0.000000 0.000000 0.000000
		CHANNELS 3 Xrotation Yrotation Zrotation
		JOINT RightUpLeg
		{
			OFFSET -15.569500 -6.655098 0.678600
			CHANNELS 3 Xrotation Yrotation Zrotation
			JOINT RightLeg
			{
				OFFSET -4.081825 -39.591045 13.023800
				CHANNELS 3 Xrotation Yrotation Zrotation
				JOINT RightFoot
				{
					OFFSET 4.081824 -37.707954 -15.979600
					CHANNELS 3 Xrotation Yrotation Zrotation
					JOINT RightToeBase
					{
						OFFSET -5.346400 -15.068900 20.645000
						CHANNELS 3 Xrotation Yrotation Zrotation
						JOINT RightToe_End
						{
							OFFSET -2.754700 0.931300 11.300900
							CHANNELS 3 Xrotation Yrotation Zrotation
							End Site
							{
								OFFSET 0 0 0
							}
						}
					}
				}
			}
		}
	}
	JOINT Spine_virtual
	{
		OFFSET 0.000000 0.000000 0.000000
		CHANNELS 3 Xrotation Yrotation Zrotation
		JOINT Spine
		{
			OFFSET -0.279200 12.230698 -2.892100
			CHANNELS 3 Xrotation Yrotation Zrotation
			JOINT Spine1
			{
				OFFSET -0.232667 10.192268 -1.242267
				CHANNELS 3 Xrotation Yrotation Zrotation
				JOINT Spine1_split
				{
					OFFSET -0.232667 10.192268 -1.242267
					CHANNELS 3 Xrotation Yrotation Zrotation
					JOINT Spine2
					{
						OFFSET -0.232667 10.192268 -1.242267
						CHANNELS 3 Xrotation Yrotation Zrotation
						JOINT Neck_virtual
						{
							OFFSET 0.000000 0.000000 0.000000
							CHANNELS 3 Xrotation Yrotation Zrotation
							JOINT Neck
							{
								OFFSET -0.418800 17.814194 8.416900
								CHANNELS 3 Xrotation Yrotation Zrotation
								JOINT Head
								{
									OFFSET 0.000000 7.031097 3.806800
									CHANNELS 3 Xrotation Yrotation Zrotation
									JOINT HeadTop_End
									{
										OFFSET 0.000000 24.646606 12.978600
										CHANNELS 3 Xrotation Yrotation Zrotation
										End Site
										{
											OFFSET 0 0 0
										}
									}
								}
							}
						}
						JOINT LeftShoulder_virtual
						{
							OFFSET 0.000000 0.000000 0.000000
							CHANNELS 3 Xrotation Yrotation Zrotation
							JOINT LeftShoulder
							{
								OFFSET 8.476499 7.247704 -3.868750
								CHANNELS 3 Xrotation Yrotation Zrotation
								JOINT LeftShoulder_split
								{
									OFFSET 8.476499 7.247704 -3.868750
									CHANNELS 3 Xrotation Yrotation Zrotation
									JOINT LeftArm
									{
										OFFSET 9.308998 -2.777710 0.208600
										CHANNELS 3 Xrotation Yrotation Zrotation
										JOINT LeftForeArm
										{
											OFFSET 29.972298 0.000000 0.000000
											CHANNELS 3 Xrotation Yrotation Zrotation
											JOINT LeftHand
											{
												OFFSET 26.026505 0.000000 0.000000
												CHANNELS 3 Xrotation Yrotation Zrotation
												End Site
												{
													OFFSET 0 0 0
												}
											}
										}
									}
								}
							}
						}
						JOINT RightShoulder_virtual
						{
							OFFSET 0.000000 0.000000 0.000000
							CHANNELS 3 Xrotation Yrotation Zrotation
							JOINT RightShoulder
							{
								OFFSET -7.570500 7.247704 -3.868750
								CHANNELS 3 Xrotation Yrotation Zrotation
								JOINT RightShoulder_split
								{
									OFFSET -7.570500 7.247704 -3.868750
									CHANNELS 3 Xrotation Yrotation Zrotation
									JOINT RightArm
									{
										OFFSET -9.308998 -2.777710 0.208500
										CHANNELS 3 Xrotation Yrotation Zrotation
										JOINT RightForeArm
										{
											OFFSET -29.972300 0.000000 0.000000
											CHANNELS 3 Xrotation Yrotation Zrotation
											JOINT RightHand
											{
												OFFSET -26.026505 0.000000 0.000000
												CHANNELS 3 Xrotation Yrotation Zrotation
												End Site
												{
													OFFSET 0 0 0
												}
											}
										}
									}
								}
							}
						}
					}
				}
			}
		}
	}
}
MOTION
Frames: 11
Frame Time: 0.03333333
1.255524 72.848198 -2.367172 0.000000 0.000000 0.000000 -4.043335 -50.623361 -0.268745 -31.813450 8.942604 21.660811 54.461620 -5.784263 5.283607 -20.954336 -7.356762 -12.670676 -8.401372 -0.299031 -1.709780 0.000000 0.000000 0.000000 -5.259221 -48.251957 0.355125 -16.956015 -11.405700 -33.794031 50.744928 -0.346099 -4.497735 -26.734192 -12.351232 24.490681 1.295451 0.644919 -0.747958 0.000000 0.000000 0.000000 -4.153073 -48.690178 0.049476 9.848045 7.710858 -1.093065 2.327116 1.766192 -1.282256 0.064791 -0.955031 0.695743 0.000000 0.000000 0.000000 2.291189 1.417003 -0.766728 -0.844043 13.443037 4.253042 7.795175 21.761961 -6.187366 0.000000 0.000000 0.000000 3.542872 1.042716 -0.929560 1.573039 3.777168 -5.938752 -3.066048 -1.433781 -1.693446 -51.320716 3.104737 -50.014863 179.241048 -71.594507 -178.725997 0.000000 0.000000 0.000000 3.485650 1.462259 -0.594267 3.800619 11.274785 -6.065278 -2.002941 -2.649689 -0.245017 -48.815372 29.777203 86.284742 178.618176 65.479944 -178.871098 0.000000 0.000000 0.000000 
1.515470 72.540825 -2.196053 0.000000 0.000000 0.000000 -4.463029 -50.895612 -0.454318 -32.114463 8.052668 21.546783 55.084919 -5.038980 5.027810 -20.412927 -6.828229 -12.584303 -8.129260 -0.166868 -2.316382 0.000000 0.000000 0.000000 -5.218145 -47.923619 0.336900 -17.042879 -11.311529 -34.017392 51.168874 0.033579 -4.517784 -27.395689 -11.957819 24.701763 1.813116 0.660643 -0.782196 0.000000 0.000000 0.000000 -4.516106 -48.535871 -0.147281 10.085036 7.721098 -1.049639 2.490207 1.632894 -1.155233 0.525565 -1.262795 0.935503 0.000000 0.000000 0.000000 2.255335 1.275880 -0.628681 -0.674442 13.388066 4.045699 8.245002 21.669984 -6.078859 0.000000 0.000000 0.000000 3.492491 0.968076 -0.887996 1.580657 3.891003 -6.331652 -2.932371 -1.296414 -1.460253 -51.224445 3.240709 -50.129641 179.386394 -71.867933 -178.680631 0.000000 0.000000 0.000000 3.547041 1.376309 -0.556214 3.934825 11.711360 -6.042688 -2.348791 -3.251704 -0.299174 -50.527328 29.022194 86.518826 178.962199 65.539312 -179.388280 0.000000 0.000000 0.000000 
1.694723 71.940758 -1.835678 0.000000 0.000000 0.000000 -5.161057 -51.404178 -0.829240 -33.107850 6.830977 21.528297 56.767758 -3.892141 4.665913 -18.902928 -6.278676 -12.337594 -7.980285 -0.098626 -2.469830 0.000000 0.000000 0.000000 -5.512478 -47.661132 -0.003923 -17.498721 -11.370748 -34.159422 52.283766 0.344534 -4.598919 -28.077238 -11.504509 24.938730 1.645431 0.656554 -0.674385 0.000000 0.000000 0.000000 -5.299825 -48.573679 -0.672921 10.359676 7.690323 -0.879147 2.587543 1.436997 -0.961974 0.904897 -1.199275 1.015632 0.000000 0.000000 0.000000 2.204419 1.071151 -0.497298 -0.712417 13.282963 3.760992 8.732760 21.529081 -5.860631 0.000000 0.000000 0.000000 3.447343 0.805700 -0.783526 1.597526 3.939435 -6.941685 -2.597988 -1.271157 -1.151414 -51.278461 3.667563 -50.439069 179.699927 -72.754793 -178.468649 0.000000 0.000000 0.000000 3.547948 1.184299 -0.460476 3.978337 11.952755 -5.987479 -2.822568 -3.425542 -0.221110 -52.016289 27.428868 85.928103 179.370330 66.122720 179.896295 0.000000 0.000000 0.000000 
1.885055 71.166870 -1.508430 0.000000 0.000000 0.000000 -6.109648 -51.969554 -1.339878 -34.482493 5.217968 21.435736 59.054956 -2.953833 4.424793 -16.631647 -6.232014 -12.556029 -9.245843 -0.149488 -1.796997 0.000000 0.000000 0.000000 -6.201294 -47.657628 -0.520924 -18.321627 -11.518381 -34.371756 53.867636 0.593553 -4.766846 -28.904514 -11.020966 24.987110 1.092495 0.622913 -0.408158 0.000000 0.000000 0.000000 -6.385250 -48.931946 -1.408484 10.625286 7.664323 -0.616880 2.568430 1.270997 -0.768398 1.005919 -0.747656 0.832174 0.000000 0.000000 0.000000 2.166397 0.882114 -0.417156 -0.957379 13.123411 3.442910 9.107328 21.318999 -5.592415 0.000000 0.000000 0.000000 3.388711 0.643225 -0.609132 1.610394 3.971928 -7.578075 -2.253133 -1.491917 -0.791022 -51.407262 4.118667 -50.860082 -179.934312 -73.543625 -178.207395 0.000000 0.000000 0.000000 3.461281 0.959382 -0.341801 3.928622 12.033164 -6.003297 -3.448782 -3.082815 0.182141 -52.571522 25.563035 84.748612 179.623142 66.950033 179.293354 0.000000 0.000000 0.000000 
2.188458 70.334129 -1.179310 0.000000 0.000000 0.000000 -7.336631 -52.479868 -1.950190 -35.605414 3.416912 21.079596 61.368594 -2.629556 4.343019 -14.332653 -7.162682 -13.390616 -12.527245 -0.419908 -0.368755 0.000000 0.000000 0.000000 -7.305927 -48.020591 -1.111470 -19.473465 -11.628165 -34.767186 55.809947 0.857996 -5.005322 -29.798015 -10.405067 24.811395 0.810747 0.564479 -0.036391 0.000000 0.000000 0.000000 -7.743878 -49.576949 -2.236782 10.871797 7.671435 -0.311474 2.460188 1.189497 -0.618296 0.758646 -0.184035 0.599917 0.000000 0.000000 0.000000 2.180042 0.785702 -0.393726 -1.313065 12.962534 3.143208 9.287893 21.116933 -5.368741 0.000000 0.000000 0.000000 3.325219 0.565993 -0.379856 1.629643 4.047571 -8.168405 -1.785660 -1.665987 -0.529652 -51.547263 4.365748 -51.307712 -179.737097 -73.829468 -178.140390 0.000000 0.000000 0.000000 3.317416 0.766592 -0.257352 3.849277 12.050098 -6.199265 -4.081243 -2.152056 0.629850 -52.079294 23.669657 83.209224 179.624454 67.669498 179.019012 0.000000 0.000000 0.000000 
2.614591 69.565674 -0.861984 0.000000 0.000000 0.000000 -8.702044 -52.878078 -2.592631 -36.391924 1.666510 20.564007 63.719067 -3.046258 4.357381 -12.478010 -9.015136 -14.868801 -16.297279 -0.837315 0.988033 0.000000 0.000000 0.000000 -8.680391 -48.828025 -1.728380 -20.926388 -11.586042 -35.428864 58.021979 1.218993 -5.241120 -30.319637 -9.560825 24.668312 0.733523 0.512442 0.286448 0.000000 0.000000 0.000000 -9.103376 -50.412786 -2.995669 11.064031 7.724292 0.035571 2.337601 1.192376 -0.522129 0.403961 0.307890 0.358062 0.000000 0.000000 0.000000 2.270199 0.827021 -0.412658 -1.638508 12.858243 2.837274 9.229067 21.081852 -5.292310 0.000000 0.000000 0.000000 3.262937 0.614339 -0.130664 1.659290 4.120957 -8.682652 -1.365721 -1.879590 -0.271706 -51.573290 4.260069 -51.617283 -179.832870 -73.495206 -178.376196 0.000000 0.000000 0.000000 3.178926 0.667232 -0.236468 3.778226 12.131995 -6.637129 -4.509831 -0.988067 1.126336 -50.861417 22.302267 81.732564 179.329267 67.849323 179.168429 0.000000 0.000000 0.000000 
3.098121 68.888977 -0.405712 0.000000 0.000000 0.000000 -9.996736 -53.238767 -3.271761 -36.785688 0.167370 20.204552 66.094873 -3.925289 4.266902 -11.247610 -11.190141 -16.685677 -18.692435 -1.143998 1.532391 0.000000 0.000000 0.000000 -10.181062 -50.002623 -2.460832 -22.428948 -11.285978 -36.307414 60.010670 1.794059 -5.499663 -30.183518 -8.589135 25.124996 0.467833 0.473065 0.421884 0.000000 0.000000 0.000000 -10.464618 -51.381006 -3.745823 11.206364 7.678515 0.410923 2.271742 1.247107 -0.498612 0.215966 0.277734 0.205897 0.000000 0.000000 0.000000 2.398738 0.965481 -0.451735 -1.799554 12.888016 2.548953 9.007128 21.255207 -5.461076 0.000000 0.000000 0.000000 3.262436 0.749440 0.053126 1.698086 4.083359 -9.016387 -1.134063 -2.119921 -0.009763 -51.343604 3.954307 -51.569076 179.868633 -72.825745 -178.781581 0.000000 0.000000 0.000000 3.125730 0.677978 -0.279225 3.752319 12.384519 -7.213812 -4.632513 -0.174793 1.724897 -49.615174 21.638425 80.259675 179.134251 67.148901 179.348514 0.000000 0.000000 0.000000 
3.625691 68.378067 0.212399 0.000000 0.000000 0.000000 -11.179623 -53.825996 -4.080977 -36.722826 -0.798681 20.480674 68.211112 -4.768225 3.773337 -10.669370 -12.726027 -18.258337 -18.886194 -1.107838 1.032792 0.000000 0.000000 0.000000 -11.610274 -51.234478 -3.390308 -23.582632 -10.775376 -37.252514 61.193195 2.656529 -5.830165 -29.482761 -7.478711 26.203841 0.052812 0.463164 0.291134 0.000000 0.000000 0.000000 -11.633914 -52.427637 -4.518379 11.282564 7.417888 0.842497 2.336308 1.295177 -0.500858 0.262429 -0.052701 0.343128 0.000000 0.000000 0.000000 2.512788 1.115034 -0.454727 -1.738896 13.135320 2.295176 8.688124 21.764784 -5.908798 0.000000 0.000000 0.000000 3.344338 0.897078 0.138724 1.759057 3.973466 -9.115390 -0.970878 -2.084087 0.031205 -51.063027 3.909159 -51.105395 179.359702 -72.329832 -179.375029 0.000000 0.000000 0.000000 3.182010 0.754255 -0.371946 3.717313 12.805380 -7.639556 -4.618876 0.061699 2.363738 -48.952673 21.829875 78.594802 179.381245 65.654913 179.162105 0.000000 0.000000 0.000000 
4.149373 68.121063 0.926498 0.000000 0.000000 0.000000 -12.174065 -54.971770 -5.131253 -36.357148 -1.160668 21.757680 69.564514 -4.969336 2.722689 -10.560421 -12.956260 -18.928647 -17.335278 -0.798729 -0.205929 0.000000 0.000000 0.000000 -12.804811 -52.330300 -4.578087 -24.119141 -10.122277 -38.150773 61.108610 3.752325 -6.112581 -28.453658 -6.305594 27.410476 -0.113933 0.520373 -0.027734 0.000000 0.000000 0.000000 -12.301128 -53.381958 -5.323356 11.201322 6.790184 1.375181 2.482365 1.272509 -0.509245 0.553001 -0.368133 0.549173 0.000000 0.000000 0.000000 2.531594 1.151455 -0.397261 -1.474463 13.582705 2.138853 8.443625 22.544132 -6.623272 0.000000 0.000000 0.000000 3.441213 0.951543 0.119417 1.815342 3.760735 -8.935459 -0.829012 -1.750410 -0.116757 -51.083323 4.506505 -50.192588 178.907024 -72.269514 -179.855451 0.000000 0.000000 0.000000 3.292639 0.807487 -0.453055 3.581572 13.200886 -7.657995 -4.652406 -0.246123 2.888114 -48.922548 23.178817 76.814841 179.935460 63.699587 178.676041 0.000000 0.000000 0.000000 
4.545411 68.174767 1.949631 0.000000 0.000000 0.000000 -12.981645 -56.290922 -6.467107 -35.553853 -0.791452 24.040374 69.747720 -4.231788 1.212873 -10.956366 -11.775899 -18.206598 -15.126308 -0.451892 -1.627181 0.000000 0.000000 0.000000 -13.559701 -53.184808 -5.910373 -24.065099 -9.461405 -38.877648 59.601071 4.956504 -6.212204 -27.030723 -5.235810 28.417439 0.051393 0.636992 -0.357526 0.000000 0.000000 0.000000 -12.487750 -54.133371 -6.233638 10.899890 5.692155 1.927895 2.589489 1.093711 -0.490469 0.852505 -0.818997 0.877028 0.000000 0.000000 0.000000 2.428217 0.965988 -0.263061 -1.239841 14.226586 2.206680 8.353967 23.387720 -7.473044 0.000000 0.000000 0.000000 3.483200 0.824956 0.058330 1.829412 3.506496 -8.424879 -0.598353 -0.952055 -0.294323 -51.755256 5.751427 -48.926100 178.636645 -72.542783 179.871078 0.000000 0.000000 0.000000 3.343255 0.704542 -0.475103 3.257292 13.201176 -7.004158 -4.621760 -0.660214 3.122799 -49.083068 25.259330 74.946204 -179.329390 61.844016 177.996014 0.000000 0.000000 0.000000 
4.745679 68.443886 3.220615 0.000000 0.000000 0.000000 -13.293535 -57.276631 -7.858385 -34.728951 0.105772 26.979329 68.840486 -2.809780 -0.368040 -11.891849 -9.663485 -16.525986 -12.827524 -0.179353 -2.849270 0.000000 0.000000 0.000000 -13.865601 -53.624628 -7.288036 -23.379247 -9.006199 -39.302295 57.185936 6.099643 -6.026519 -25.164796 -4.469656 28.898223 -0.097460 0.774161 -0.553423 0.000000 0.000000 0.000000 -12.082889 -54.397959 -7.134209 10.297448 4.181967 2.368702 2.593275 0.713994 -0.423606 1.219198 -1.057276 1.214580 0.000000 0.000000 0.000000 2.213791 0.530682 -0.073891 -1.260079 14.961963 2.575280 8.423783 23.966504 -8.157930 0.000000 0.000000 0.000000 3.385874 0.466343 0.017625 1.785368 3.253120 -7.683252 -0.657613 -0.047651 -0.601408 -53.048583 7.324920 -47.464887 178.562551 -72.869738 179.747630 0.000000 0.000000 0.000000 3.240810 0.363181 -0.413945 2.683868 12.436680 -5.671895 -4.714234 -0.891226 2.878926 -48.293799 27.627874 72.916900 -178.686846 60.416315 177.383278 0.000000 0.000000 0.000000 
